<?xml version="1.0" encoding="UTF-8" standalone="no"?>
<!DOCTYPE svg PUBLIC "-//W3C//DTD SVG 1.1//EN" "http://www.w3.org/Graphics/SVG/1.1/DTD/svg11.dtd">
<svg width="20" height="20" viewBox="0 0 138 138" version="1.1" xmlns="http://www.w3.org/2000/svg" xmlns:xlink="http://www.w3.org/1999/xlink" xml:space="preserve" xmlns:serif="http://www.serif.com/" style="fill-rule:evenodd;clip-rule:evenodd;stroke-linejoin:round;stroke-miterlimit:2;">
    <g transform="matrix(1,0,0,1,4.373,137.883)">
        <path d="M0,-113.683C-2.771,-108.039 -4.373,-101.743 -4.373,-95.097L-4.373,-42.805C-4.373,-19.392 15,0 38.413,0L90.724,0C110.172,0 126.832,-13.379 131.917,-31.329C132.955,-34.989 133.51,-38.839 133.51,-42.805L133.51,-56.941C107.363,-56.566 99.665,-59.778 99.665,-42.805C99.665,-37.553 95.977,-33.845 90.724,-33.845L38.413,-33.845C33.161,-33.845 29.453,-37.553 29.453,-42.805L29.453,-84.23L0,-113.683Z" style="fill:rgb(4,74,135);fill-rule:nonzero;"/>
    </g>
    <g transform="matrix(1,0,0,1,42.7861,69.075)">
        <path d="M0,-69.075C-10.658,-69.075 -20.455,-65.033 -27.992,-58.45L-3.959,-34.416C-3.958,-34.417 -3.959,-34.415 -3.959,-34.416L27.802,-2.651L58.274,-33.122C60.124,-31.527 61.248,-29.155 61.248,-26.289C60.011,0 61.854,-2.653 95.153,-2.563L95.093,-26.289C95.09,-27.491 95.04,-28.68 94.942,-29.858C93.094,-51.638 74.521,-69.075 52.309,-69.075L49.32,-69.075L27.804,-47.563L6.292,-69.075L0,-69.075Z" style="fill:rgb(103,199,202);fill-rule:nonzero;"/>
    </g>
</svg>
